<?xml version="1.0" encoding="UTF-8"?>
<svg width="298px" height="140px" viewBox="0 0 298 140" version="1.1" xmlns="http://www.w3.org/2000/svg" xmlns:xlink="http://www.w3.org/1999/xlink">
    <!-- Generator: Sketch 41.1 (35376) - http://www.bohemiancoding.com/sketch -->
    <title>Group 2</title>
    <desc>Created with Sketch.</desc>
    <defs>
        <linearGradient x1="72.1632162%" y1="100%" x2="24.5278391%" y2="0%" id="linearGradient-1">
            <stop stop-color="#D40249" offset="0%"></stop>
            <stop stop-color="#FFA413" offset="100%"></stop>
        </linearGradient>
    </defs>
    <g id="Page-1" stroke="none" stroke-width="1" fill="none" fill-rule="evenodd">
        <g id="Artboard-2" transform="translate(-109.000000, -81.000000)">
            <g id="Group-2" transform="translate(110.000000, 81.000000)">
                <path d="M30.725,133.65 C29.2249925,135.450009 27.3333447,136.791662 25.05,137.675 C22.7666552,138.558338 20.4416785,139 18.075,139 C15.40832,139 12.975011,138.533338 10.775,137.6 C8.574989,136.666662 6.675008,135.375008 5.075,133.725 C3.474992,132.074992 2.23333775,130.100011 1.35,127.8 C0.46666225,125.499988 0.025,123.000014 0.025,120.3 C0.025,117.599986 0.46666225,115.100011 1.35,112.8 C2.23333775,110.499988 3.474992,108.525008 5.075,106.875 C6.675008,105.224992 8.58332225,103.933338 10.8,103 C13.0166777,102.066662 15.4416535,101.6 18.075,101.6 C20.275011,101.6 22.4166562,101.974996 24.5,102.725 C26.5833437,103.475004 28.358326,104.616659 29.825,106.15 L29.125,106.95 C28.4249965,106.216663 27.6333377,105.575003 26.75,105.025 C25.8666622,104.474997 24.9333382,104.016668 23.95,103.65 C22.9666617,103.283331 21.975005,103.016667 20.975,102.85 C19.974995,102.683333 19.008338,102.6 18.075,102.6 C15.541654,102.6 13.2333437,103.058329 11.15,103.975 C9.06665625,104.891671 7.28334075,106.149992 5.8,107.75 C4.31665925,109.350008 3.16667075,111.224989 2.35,113.375 C1.53332925,115.525011 1.125,117.833321 1.125,120.3 C1.125,122.766679 1.524996,125.074989 2.325,127.225 C3.125004,129.375011 4.26665925,131.249992 5.75,132.85 C7.23334075,134.450008 9.01665625,135.708329 11.1,136.625 C13.1833437,137.541671 15.5083205,138 18.075,138 C20.275011,138 22.4499892,137.575004 24.6,136.725 C26.7500108,135.874996 28.524993,134.600009 29.925,132.9 L30.725,133.65 Z M63.825,138 L59.625,127.85 L39.075,127.85 L34.725,138 L33.525,138 L48.875,102.6 L50.275,102.6 L65.025,138 L63.825,138 Z M49.525,103.3 L39.475,126.9 L59.275,126.9 L49.525,103.3 Z M90.825,129.5 C90.825,131.000007 90.5333362,132.341661 89.95,133.525 C89.3666637,134.708339 88.5916715,135.708329 87.625,136.525 C86.6583285,137.341671 85.5166732,137.958331 84.2,138.375 C82.8833267,138.791669 81.5083405,139 80.075,139 C77.874989,139 75.8666758,138.608337 74.05,137.825 C72.2333243,137.041663 70.725006,135.98334 69.525,134.65 L70.375,133.9 C71.641673,135.266674 73.1166583,136.291663 74.8,136.975 C76.4833418,137.658337 78.224991,138 80.025,138 C81.3250065,138 82.5583275,137.808335 83.725,137.425 C84.8916725,137.041665 85.9249955,136.49167 86.825,135.775 C87.7250045,135.05833 88.4333307,134.175005 88.95,133.125 C89.4666692,132.074995 89.725,130.866673 89.725,129.5 C89.725,128.133327 89.4416695,126.983338 88.875,126.05 C88.3083305,125.116662 87.5750045,124.31667 86.675,123.65 C85.7749955,122.98333 84.7500058,122.425002 83.6,121.975 C82.4499942,121.524998 81.2916725,121.116669 80.125,120.75 C78.658326,120.283331 77.3166727,119.791669 76.1,119.275 C74.8833272,118.758331 73.8333377,118.125004 72.95,117.375 C72.0666622,116.624996 71.3833358,115.725005 70.9,114.675 C70.4166642,113.624995 70.175,112.350008 70.175,110.85 C70.175,109.383326 70.4666637,108.075006 71.05,106.925 C71.6333362,105.774994 72.424995,104.808337 73.425,104.025 C74.425005,103.241663 75.5833267,102.641669 76.9,102.225 C78.2166732,101.808331 79.608326,101.6 81.075,101.6 C82.875009,101.6 84.5833252,101.941663 86.2,102.625 C87.8166748,103.308337 89.1416615,104.283327 90.175,105.55 L89.325,106.3 C88.391662,105.133328 87.2000072,104.225003 85.75,103.575 C84.2999928,102.924997 82.7250085,102.6 81.025,102.6 C79.824994,102.6 78.6500057,102.766665 77.5,103.1 C76.3499943,103.433335 75.308338,103.941663 74.375,104.625 C73.441662,105.308337 72.6916695,106.166662 72.125,107.2 C71.5583305,108.233339 71.275,109.449993 71.275,110.85 C71.275,112.216674 71.5249975,113.374995 72.025,114.325 C72.5250025,115.275005 73.1916625,116.08333 74.025,116.75 C74.8583375,117.41667 75.7999947,117.966664 76.85,118.4 C77.9000052,118.833335 78.9749945,119.233332 80.075,119.6 C81.5750075,120.100003 82.9749935,120.608331 84.275,121.125 C85.5750065,121.641669 86.7166617,122.266663 87.7,123 C88.6833382,123.733337 89.4499972,124.624995 90,125.675 C90.5500027,126.725005 90.825,127.999993 90.825,129.5 Z M119.325,129.5 C119.325,131.000007 119.033336,132.341661 118.45,133.525 C117.866664,134.708339 117.091671,135.708329 116.125,136.525 C115.158328,137.341671 114.016673,137.958331 112.7,138.375 C111.383327,138.791669 110.00834,139 108.575,139 C106.374989,139 104.366676,138.608337 102.55,137.825 C100.733324,137.041663 99.225006,135.98334 98.025,134.65 L98.875,133.9 C100.141673,135.266674 101.616658,136.291663 103.3,136.975 C104.983342,137.658337 106.724991,138 108.525,138 C109.825006,138 111.058328,137.808335 112.225,137.425 C113.391672,137.041665 114.424995,136.49167 115.325,135.775 C116.225004,135.05833 116.933331,134.175005 117.45,133.125 C117.966669,132.074995 118.225,130.866673 118.225,129.5 C118.225,128.133327 117.941669,126.983338 117.375,126.05 C116.808331,125.116662 116.075004,124.31667 115.175,123.65 C114.274995,122.98333 113.250006,122.425002 112.1,121.975 C110.949994,121.524998 109.791673,121.116669 108.625,120.75 C107.158326,120.283331 105.816673,119.791669 104.6,119.275 C103.383327,118.758331 102.333338,118.125004 101.45,117.375 C100.566662,116.624996 99.8833358,115.725005 99.4,114.675 C98.9166642,113.624995 98.675,112.350008 98.675,110.85 C98.675,109.383326 98.9666637,108.075006 99.55,106.925 C100.133336,105.774994 100.924995,104.808337 101.925,104.025 C102.925005,103.241663 104.083327,102.641669 105.4,102.225 C106.716673,101.808331 108.108326,101.6 109.575,101.6 C111.375009,101.6 113.083325,101.941663 114.7,102.625 C116.316675,103.308337 117.641661,104.283327 118.675,105.55 L117.825,106.3 C116.891662,105.133328 115.700007,104.225003 114.25,103.575 C112.799993,102.924997 111.225009,102.6 109.525,102.6 C108.324994,102.6 107.150006,102.766665 106,103.1 C104.849994,103.433335 103.808338,103.941663 102.875,104.625 C101.941662,105.308337 101.191669,106.166662 100.625,107.2 C100.058331,108.233339 99.775,109.449993 99.775,110.85 C99.775,112.216674 100.024997,113.374995 100.525,114.325 C101.025002,115.275005 101.691663,116.08333 102.525,116.75 C103.358337,117.41667 104.299995,117.966664 105.35,118.4 C106.400005,118.833335 107.474994,119.233332 108.575,119.6 C110.075007,120.100003 111.474993,120.608331 112.775,121.125 C114.075006,121.641669 115.216662,122.266663 116.2,123 C117.183338,123.733337 117.949997,124.624995 118.5,125.675 C119.050003,126.725005 119.325,127.999993 119.325,129.5 Z M154.125,138 L149.925,127.85 L129.375,127.85 L125.025,138 L123.825,138 L139.175,102.6 L140.575,102.6 L155.325,138 L154.125,138 Z M139.825,103.3 L129.775,126.9 L149.575,126.9 L139.825,103.3 Z M188.175,138 L162.775,104 L162.625,104 L162.625,138 L161.525,138 L161.525,102.6 L163.075,102.6 L188.525,136.55 L188.675,136.55 L188.675,102.6 L189.775,102.6 L189.775,138 L188.175,138 Z M229.975,120.3 C229.975,123.366682 229.475005,126.008322 228.475,128.225 C227.474995,130.441678 226.091675,132.274993 224.325,133.725 C222.558325,135.175007 220.483345,136.249997 218.1,136.95 C215.716655,137.650004 213.158347,138 210.425,138 L200.375,138 L200.375,102.6 L210.425,102.6 C213.158347,102.6 215.716655,102.941663 218.1,103.625 C220.483345,104.308337 222.558325,105.374993 224.325,106.825 C226.091675,108.275007 227.474995,110.116655 228.475,112.35 C229.475005,114.583345 229.975,117.233318 229.975,120.3 Z M201.525,103.6 L201.525,137 L210.175,137 C212.775013,137 215.216655,136.675003 217.5,136.025 C219.783345,135.374997 221.758325,134.375007 223.425,133.025 C225.091675,131.674993 226.408328,129.950011 227.375,127.85 C228.341671,125.749989 228.825,123.233348 228.825,120.3 C228.825,117.366652 228.341671,114.841677 227.375,112.725 C226.408328,110.608323 225.091675,108.875007 223.425,107.525 C221.758325,106.174993 219.783345,105.183336 217.5,104.55 C215.216655,103.916664 212.775013,103.6 210.175,103.6 L201.525,103.6 Z M258.975,138 L248.275,120.15 L239.975,120.15 L239.975,138 L238.875,138 L238.875,102.6 L248.675,102.6 C249.975007,102.6 251.29166,102.716665 252.625,102.95 C253.95834,103.183335 255.149995,103.624997 256.2,104.275 C257.250005,104.925003 258.10833,105.816661 258.775,106.95 C259.44167,108.083339 259.775,109.549991 259.775,111.35 C259.775,113.016675 259.458336,114.399994 258.825,115.5 C258.191664,116.600006 257.375005,117.491663 256.375,118.175 C255.374995,118.858337 254.266673,119.349998 253.05,119.65 C251.833327,119.950001 250.641672,120.1 249.475,120.1 L260.225,138 L258.975,138 Z M258.675,111.35 C258.675,109.816659 258.375003,108.541672 257.775,107.525 C257.174997,106.508328 256.383338,105.708336 255.4,105.125 C254.416662,104.541664 253.28334,104.133334 252,103.9 C250.71666,103.666666 249.40834,103.55 248.075,103.55 L239.975,103.55 L239.975,119.2 L248.625,119.2 C251.891683,119.2 254.383325,118.516674 256.1,117.15 C257.816675,115.783326 258.675,113.850012 258.675,111.35 Z M294.475,138 L290.275,127.85 L269.725,127.85 L265.375,138 L264.175,138 L279.525,102.6 L280.925,102.6 L295.675,138 L294.475,138 Z M280.175,103.3 L270.125,126.9 L289.925,126.9 L280.175,103.3 Z" id="CASSANDRA" stroke="#000000" fill="#000000"></path>
                <g id="Group" transform="translate(109.000000, 0.000000)" stroke="#FFFFFF" fill="url(#linearGradient-1)" stroke-linejoin="round">
                    <path d="M37.1055781,73.5915069 L73.4297447,37.113547 L37.1055781,46.1646189 L37.1055781,73.5915069 Z M37.1055781,73.5915069 L0.7814115,37.113547 L37.1055781,46.1646189 L37.1055781,73.5915069 Z M37.1055781,46.1646189 L73.4297447,37.113547 L37.1055781,0.628126129 L37.1055781,46.1646189 Z M37.1055781,46.1646189 L0.7814115,37.113547 L37.1055781,0.628126129 L37.1055781,46.1646189 Z" id="Combined-Shape"></path>
                </g>
            </g>
        </g>
    </g>
</svg>