<?xml version="1.0" encoding="UTF-8"?>
<svg width="200px" height="200px" viewBox="0 0 200 200" version="1.1" xmlns="http://www.w3.org/2000/svg" xmlns:xlink="http://www.w3.org/1999/xlink">
    <!-- Generator: Sketch 41.1 (35376) - http://www.bohemiancoding.com/sketch -->
    <title>Artboard 3</title>
    <desc>Created with Sketch.</desc>
    <defs>
        <path d="M1.84889275e-32,9.06234475 C-6.10670452e-17,0.783583906 5.24041919,-1.73295564 11.7125609,3.44770553 L35.1804189,22.2326805 C41.9195092,27.6270221 40.3911523,32 31.7693146,32 L1.69196195e-16,32 L1.84889275e-32,9.06234475 Z" id="path-1"></path>
        <filter x="-50%" y="-50%" width="200%" height="200%" filterUnits="objectBoundingBox" id="filter-2">
            <feGaussianBlur stdDeviation="0.25" in="SourceAlpha" result="shadowBlurInner1"></feGaussianBlur>
            <feOffset dx="0" dy="0.5" in="shadowBlurInner1" result="shadowOffsetInner1"></feOffset>
            <feComposite in="shadowOffsetInner1" in2="SourceAlpha" operator="arithmetic" k2="-1" k3="1" result="shadowInnerInner1"></feComposite>
            <feColorMatrix values="0 0 0 0 1   0 0 0 0 1   0 0 0 0 1  0 0 0 1 0" type="matrix" in="shadowInnerInner1"></feColorMatrix>
        </filter>
    </defs>
    <g id="Page-1" stroke="none" stroke-width="1" fill="none" fill-rule="evenodd">
        <g id="Artboard-3">
            <g id="Group-3" transform="translate(99.956766, 99.510305) rotate(-6.000000) translate(-99.956766, -99.510305) translate(30.956766, 15.510305)">
                <rect id="Rectangle-3" fill="#2E2E2E" x="5" y="76" width="132" height="92"></rect>
                <g id="Text" transform="translate(15.000000, 92.000000)" fill="#ECECEC">
                    <path d="M3.22070312,4.390625 C3.29101562,5.484375 4.16601562,6.14453125 5.44726562,6.14453125 C6.84570312,6.14453125 7.79101562,5.40234375 7.79101562,4.28515625 C7.79101562,3.5234375 7.35742187,3.0546875 6.40039062,2.75390625 L5.82226562,2.57421875 C5.29101562,2.40625 5.06445312,2.17578125 5.06445312,1.86328125 C5.06445312,1.46484375 5.48632812,1.17578125 6.03710937,1.17578125 C6.61914062,1.17578125 7.04492187,1.4921875 7.11523437,1.96484375 L8.22851562,1.96484375 C8.19335937,0.9375 7.32226562,0.21875 6.08398437,0.21875 C4.81054687,0.21875 3.86523437,0.97265625 3.86523437,2.00390625 C3.86523437,2.73046875 4.34179687,3.28515625 5.17382812,3.54296875 L5.75976562,3.7265625 C6.36914062,3.91796875 6.60351562,4.12109375 6.60351562,4.44921875 C6.60351562,4.890625 6.16601562,5.1875 5.53320312,5.1875 C4.92382812,5.1875 4.44335937,4.875 4.36132812,4.390625 L3.22070312,4.390625 Z M13.0410156,2.359375 L14.1894531,2.359375 C14.1972656,2.30078125 14.1972656,2.25 14.1972656,2.19140625 C14.1972656,1.07421875 13.2167969,0.21875 11.9238281,0.21875 C10.1269531,0.21875 8.82617187,1.69921875 8.82617187,3.78125 C8.82617187,5.21484375 9.74804687,6.14453125 11.1621094,6.14453125 C12.5253906,6.14453125 13.5605469,5.375 13.8066406,4.1875 L12.6386719,4.1875 C12.4550781,4.73828125 11.9042969,5.1015625 11.2636719,5.1015625 C10.5058594,5.1015625 10.0332031,4.56640625 10.0332031,3.69921875 C10.0332031,2.3125 10.8261719,1.265625 11.8496094,1.265625 C12.5410156,1.265625 13.0136719,1.6796875 13.0410156,2.3046875 L13.0410156,2.359375 Z M18.4394531,4.9921875 L15.8886719,4.9921875 L16.1933594,3.62109375 L18.5957031,3.62109375 L18.7910156,2.6875 L16.3847656,2.6875 L16.6777344,1.37109375 L19.2246094,1.37109375 L19.4316406,0.36328125 L15.6972656,0.36328125 L14.4980469,6 L18.2363281,6 L18.4394531,4.9921875 Z M20.6152344,6 L21.3964844,2.3984375 L21.4667969,2.3984375 L23.3535156,6 L24.2480469,6 L25.4472656,0.36328125 L24.3027344,0.36328125 L23.5136719,3.9921875 L23.4433594,3.9921875 L21.5722656,0.36328125 L20.6699219,0.36328125 L19.4707031,6 L20.6152344,6 Z M29.5566406,4.9921875 L27.0058594,4.9921875 L27.3105469,3.62109375 L29.7128906,3.62109375 L29.9082031,2.6875 L27.5019531,2.6875 L27.7949219,1.37109375 L30.3417969,1.37109375 L30.5488281,0.36328125 L26.8144531,0.36328125 L25.6152344,6 L29.3535156,6 L29.5566406,4.9921875 Z" id="SCENE"></path>
                    <path d="M47.5449219,6 L48.5371094,1.37109375 L50.2246094,1.37109375 L50.4316406,0.36328125 L45.8691406,0.36328125 L45.6621094,1.37109375 L47.3496094,1.37109375 L46.3574219,6 L47.5449219,6 Z M53.9472656,6 L55.1621094,6 L54.4316406,0.36328125 L53.0683594,0.36328125 L49.8652344,6 L51.0957031,6 L51.8222656,4.65625 L53.8105469,4.65625 L53.9472656,6 Z M53.4550781,1.5390625 L53.5292969,1.5390625 L53.7558594,3.74609375 L52.2675781,3.74609375 L53.4550781,1.5390625 Z M57.3105469,6 L57.6699219,4.34375 L58.4199219,3.6328125 L59.5644531,6 L60.8925781,6 L59.4003906,2.9140625 L62.0175781,0.36328125 L60.6191406,0.36328125 L58.0449219,2.84375 L57.9746094,2.84375 L58.5058594,0.36328125 L57.3300781,0.36328125 L56.1308594,6 L57.3105469,6 Z M65.7519531,4.9921875 L63.2011719,4.9921875 L63.5058594,3.62109375 L65.9082031,3.62109375 L66.1035156,2.6875 L63.6972656,2.6875 L63.9902344,1.37109375 L66.5371094,1.37109375 L66.7441406,0.36328125 L63.0097656,0.36328125 L61.8105469,6 L65.5488281,6 L65.7519531,4.9921875 Z" id="TAKE"></path>
                    <path d="M85.7011719,6 L86.8886719,6 L87.3261719,3.95703125 L88.3339844,3.95703125 L89.0058594,6 L90.2753906,6 L89.5019531,3.8203125 C90.3613281,3.5390625 90.8964844,2.7890625 90.8964844,1.9609375 C90.8964844,1.0234375 90.1738281,0.36328125 89.1308594,0.36328125 L86.9003906,0.36328125 L85.7011719,6 Z M87.8925781,1.31640625 L88.8613281,1.31640625 C89.3847656,1.31640625 89.6933594,1.58984375 89.6933594,2.06640625 C89.6933594,2.64453125 89.2324219,3.05078125 88.5410156,3.05078125 L87.5097656,3.05078125 L87.8925781,1.31640625 Z M93.9941406,6.14453125 C95.7480469,6.14453125 97.0722656,4.69921875 97.0722656,2.61328125 C97.0722656,1.24609375 96.1386719,0.21875 94.6425781,0.21875 C92.8886719,0.21875 91.5566406,1.67578125 91.5566406,3.75 C91.5566406,5.1171875 92.5175781,6.14453125 93.9941406,6.14453125 Z M95.8613281,2.703125 C95.8613281,4.0625 95.0644531,5.08984375 94.0410156,5.08984375 C93.2753906,5.08984375 92.7675781,4.5234375 92.7675781,3.6640625 C92.7675781,2.3203125 93.5761719,1.27734375 94.5957031,1.27734375 C95.3535156,1.27734375 95.8613281,1.84375 95.8613281,2.703125 Z M101.455078,4.97265625 L98.9511719,4.97265625 L99.9394531,0.36328125 L98.7558594,0.36328125 L97.5566406,6 L101.244141,6 L101.455078,4.97265625 Z M106.216797,4.97265625 L103.712891,4.97265625 L104.701172,0.36328125 L103.517578,0.36328125 L102.318359,6 L106.005859,6 L106.216797,4.97265625 Z" id="ROLL"></path>
                    <path d="M70.4746094,30.390625 C70.5449219,31.484375 71.4199219,32.1445312 72.7011719,32.1445312 C74.0996094,32.1445312 75.0449219,31.4023437 75.0449219,30.2851562 C75.0449219,29.5234375 74.6113281,29.0546875 73.6542969,28.7539062 L73.0761719,28.5742187 C72.5449219,28.40625 72.3183594,28.1757812 72.3183594,27.8632812 C72.3183594,27.4648437 72.7402344,27.1757812 73.2910156,27.1757812 C73.8730469,27.1757812 74.2988281,27.4921875 74.3691406,27.9648437 L75.4824219,27.9648437 C75.4472656,26.9375 74.5761719,26.21875 73.3378906,26.21875 C72.0644531,26.21875 71.1191406,26.9726562 71.1191406,28.0039062 C71.1191406,28.7304687 71.5957031,29.2851562 72.4277344,29.5429687 L73.0136719,29.7265625 C73.6230469,29.9179687 73.8574219,30.1210937 73.8574219,30.4492187 C73.8574219,30.890625 73.4199219,31.1875 72.7871094,31.1875 C72.1777344,31.1875 71.6972656,30.875 71.6152344,30.390625 L70.4746094,30.390625 Z M78.5214844,32.1445312 C80.2753906,32.1445312 81.5996094,30.6992187 81.5996094,28.6132812 C81.5996094,27.2460937 80.6660156,26.21875 79.1699219,26.21875 C77.4160156,26.21875 76.0839844,27.6757812 76.0839844,29.75 C76.0839844,31.1171875 77.0449219,32.1445312 78.5214844,32.1445312 Z M80.3886719,28.703125 C80.3886719,30.0625 79.5917969,31.0898437 78.5683594,31.0898437 C77.8027344,31.0898437 77.2949219,30.5234375 77.2949219,29.6640625 C77.2949219,28.3203125 78.1035156,27.2773437 79.1230469,27.2773437 C79.8808594,27.2773437 80.3886719,27.84375 80.3886719,28.703125 Z M84.7246094,32.1445312 C86.0722656,32.1445312 86.9707031,31.4414062 87.2207031,30.2578125 L88.0449219,26.3632812 L86.8574219,26.3632812 L86.0839844,29.9960937 C85.9316406,30.6953125 85.4550781,31.0859375 84.7949219,31.0859375 C84.1269531,31.0859375 83.7285156,30.7460937 83.7167969,30.1875 C83.7128906,30.0664062 83.7285156,29.9296875 83.7597656,29.7890625 L84.4863281,26.3632812 L83.2949219,26.3632812 L82.5644531,29.8164062 C82.5292969,29.984375 82.5136719,30.1523437 82.5136719,30.3085937 C82.5175781,31.3710937 83.3417969,32.1445312 84.7246094,32.1445312 Z M89.3378906,32 L90.1191406,28.3984375 L90.1894531,28.3984375 L92.0761719,32 L92.9707031,32 L94.1699219,26.3632812 L93.0253906,26.3632812 L92.2363281,29.9921875 L92.1660156,29.9921875 L90.2949219,26.3632812 L89.3925781,26.3632812 L88.1933594,32 L89.3378906,32 Z M95.5371094,26.3632812 L94.3417969,32 L96.9003906,32 C98.6113281,32 99.8417969,30.5898437 99.8417969,28.65625 C99.8417969,27.21875 98.9707031,26.3632812 97.5332031,26.3632812 L95.5371094,26.3632812 Z M96.5253906,27.3632812 L97.2714844,27.3632812 C98.1269531,27.3632812 98.6269531,27.9101562 98.6269531,28.7890625 C98.6269531,30.109375 97.8535156,30.9960937 96.7949219,30.9960937 L95.7402344,30.9960937 L96.5253906,27.3632812 Z" id="SOUND"></path>
                    <path d="M1.40429687,25.7724609 L0.5078125,30 L2.42675781,30 C3.70996094,30 4.6328125,28.9423828 4.6328125,27.4921875 C4.6328125,26.4140625 3.97949219,25.7724609 2.90136719,25.7724609 L1.40429687,25.7724609 Z M2.14550781,26.5224609 L2.70507812,26.5224609 C3.34667969,26.5224609 3.72167969,26.9326172 3.72167969,27.5917969 C3.72167969,28.5820312 3.14160156,29.2470703 2.34765625,29.2470703 L1.55664062,29.2470703 L2.14550781,26.5224609 Z M7.76171875,30 L8.67285156,30 L8.125,25.7724609 L7.10253906,25.7724609 L4.70019531,30 L5.62304687,30 L6.16796875,28.9921875 L7.65917969,28.9921875 L7.76171875,30 Z M7.39257812,26.6542969 L7.44824219,26.6542969 L7.61816406,28.3095703 L6.50195312,28.3095703 L7.39257812,26.6542969 Z M11.3095703,30 L12.0537109,26.5283203 L13.3193359,26.5283203 L13.4746094,25.7724609 L10.0527344,25.7724609 L9.89746094,26.5283203 L11.1630859,26.5283203 L10.4189453,30 L11.3095703,30 Z M16.3076172,29.2441406 L14.3945312,29.2441406 L14.6230469,28.2158203 L16.4248047,28.2158203 L16.5712891,27.515625 L14.7666016,27.515625 L14.9863281,26.5283203 L16.8964844,26.5283203 L17.0517578,25.7724609 L14.2509766,25.7724609 L13.3515625,30 L16.1552734,30 L16.3076172,29.2441406 Z" id="DATE"></path>
                    <path d="M1.42797852,39.0678711 L0.382080078,44 L1.41772461,44 L1.74926758,42.46875 L2.71313477,42.46875 C3.97094727,42.46875 4.84594727,41.7202148 4.84594727,40.5102539 C4.84594727,39.6386719 4.20336914,39.0678711 3.22924805,39.0678711 L1.42797852,39.0678711 Z M2.29272461,39.9155273 L2.9831543,39.9155273 C3.49243164,39.9155273 3.79663086,40.1547852 3.79663086,40.609375 C3.79663086,41.2280273 3.35913086,41.6313477 2.69946289,41.6313477 L1.91674805,41.6313477 L2.29272461,39.9155273 Z M5.05444336,44 L6.09350586,44 L6.47631836,42.2124023 L7.3581543,42.2124023 L7.94604492,44 L9.05688477,44 L8.38012695,42.0927734 C9.13208008,41.8466797 9.6003418,41.1904297 9.6003418,40.4658203 C9.6003418,39.6455078 8.96801758,39.0678711 8.05541992,39.0678711 L6.10375977,39.0678711 L5.05444336,44 Z M6.97192383,39.9018555 L7.81958008,39.9018555 C8.27758789,39.9018555 8.54760742,40.1411133 8.54760742,40.5581055 C8.54760742,41.0639648 8.14428711,41.4194336 7.53930664,41.4194336 L6.63696289,41.4194336 L6.97192383,39.9018555 Z M12.310791,44.1264648 C13.845459,44.1264648 15.0041504,42.8618164 15.0041504,41.0366211 C15.0041504,39.840332 14.1872559,38.9414062 12.8781738,38.9414062 C11.3435059,38.9414062 10.1779785,40.2163086 10.1779785,42.03125 C10.1779785,43.2275391 11.0187988,44.1264648 12.310791,44.1264648 Z M13.9445801,41.1152344 C13.9445801,42.3046875 13.2473145,43.2036133 12.3518066,43.2036133 C11.6818848,43.2036133 11.2375488,42.7080078 11.2375488,41.9560547 C11.2375488,40.7802734 11.9450684,39.8676758 12.8371582,39.8676758 C13.5002441,39.8676758 13.9445801,40.3632812 13.9445801,41.1152344 Z M16.4772949,39.0678711 L15.4313965,44 L17.670166,44 C19.1672363,44 20.2438965,42.7661133 20.2438965,41.0742187 C20.2438965,39.8164062 19.4816895,39.0678711 18.223877,39.0678711 L16.4772949,39.0678711 Z M17.342041,39.9428711 L17.994873,39.9428711 C18.7434082,39.9428711 19.1809082,40.4213867 19.1809082,41.1904297 C19.1809082,42.3457031 18.5041504,43.121582 17.5778809,43.121582 L16.6550293,43.121582 L17.342041,39.9428711 Z M21.3547363,44.0922852 C21.723877,44.0922852 21.9597168,43.8222656 21.9597168,43.4804687 C21.9597168,43.1694336 21.723877,42.90625 21.3547363,42.90625 C20.9890137,42.90625 20.7497559,43.1694336 20.7497559,43.5180664 C20.7497559,43.8222656 20.9890137,44.0922852 21.3547363,44.0922852 Z M27.0695801,40.8144531 L28.0744629,40.8144531 C28.0812988,40.7631836 28.0812988,40.71875 28.0812988,40.6674805 C28.0812988,39.6899414 27.2233887,38.9414062 26.092041,38.9414062 C24.5197754,38.9414062 23.3815918,40.2368164 23.3815918,42.0585937 C23.3815918,43.3129883 24.1882324,44.1264648 25.4255371,44.1264648 C26.6184082,44.1264648 27.5241699,43.453125 27.739502,42.4140625 L26.7175293,42.4140625 C26.5568848,42.8959961 26.0749512,43.2138672 25.5144043,43.2138672 C24.8513184,43.2138672 24.4377441,42.7456055 24.4377441,41.9868164 C24.4377441,40.7734375 25.1315918,39.8574219 26.0270996,39.8574219 C26.6320801,39.8574219 27.0456543,40.2197266 27.0695801,40.7666016 L27.0695801,40.8144531 Z M30.7541504,44.1264648 C32.2888184,44.1264648 33.4475098,42.8618164 33.4475098,41.0366211 C33.4475098,39.840332 32.6306152,38.9414062 31.3215332,38.9414062 C29.7868652,38.9414062 28.6213379,40.2163086 28.6213379,42.03125 C28.6213379,43.2275391 29.4621582,44.1264648 30.7541504,44.1264648 Z M32.3879395,41.1152344 C32.3879395,42.3046875 31.6906738,43.2036133 30.795166,43.2036133 C30.1252441,43.2036133 29.6809082,42.7080078 29.6809082,41.9560547 C29.6809082,40.7802734 30.3884277,39.8676758 31.2805176,39.8676758 C31.9436035,39.8676758 32.3879395,40.3632812 32.3879395,41.1152344 Z M34.5515137,44.0922852 C34.9206543,44.0922852 35.1564941,43.8222656 35.1564941,43.4804687 C35.1564941,43.1694336 34.9206543,42.90625 34.5515137,42.90625 C34.185791,42.90625 33.9465332,43.1694336 33.9465332,43.5180664 C33.9465332,43.8222656 34.185791,44.0922852 34.5515137,44.0922852 Z" id="PROD.CO."></path>
                    <path d="M1.44262695,52.0678711 L0.396728516,57 L2.63549805,57 C4.13256836,57 5.20922852,55.7661133 5.20922852,54.0742187 C5.20922852,52.8164062 4.44702148,52.0678711 3.18920898,52.0678711 L1.44262695,52.0678711 Z M2.30737305,52.9428711 L2.96020508,52.9428711 C3.70874023,52.9428711 4.14624023,53.4213867 4.14624023,54.1904297 C4.14624023,55.3457031 3.46948242,56.121582 2.54321289,56.121582 L1.62036133,56.121582 L2.30737305,52.9428711 Z M6.67895508,57 L7.72827148,52.0678711 L6.68920898,52.0678711 L5.63989258,57 L6.67895508,57 Z M7.87182617,57 L8.91088867,57 L9.29370117,55.2124023 L10.1755371,55.2124023 L10.7634277,57 L11.8742676,57 L11.1975098,55.0927734 C11.9494629,54.8466797 12.4177246,54.1904297 12.4177246,53.4658203 C12.4177246,52.6455078 11.7854004,52.0678711 10.8728027,52.0678711 L8.92114258,52.0678711 L7.87182617,57 Z M9.78930664,52.9018555 L10.6369629,52.9018555 C11.0949707,52.9018555 11.3649902,53.1411133 11.3649902,53.5581055 C11.3649902,54.0639648 10.9616699,54.4194336 10.3566895,54.4194336 L9.4543457,54.4194336 L9.78930664,52.9018555 Z M16.1672363,56.1181641 L13.9353027,56.1181641 L14.2019043,54.918457 L16.3039551,54.918457 L16.4748535,54.1015625 L14.3693848,54.1015625 L14.6257324,52.949707 L16.854248,52.949707 L17.0354004,52.0678711 L13.7678223,52.0678711 L12.7185059,57 L15.989502,57 L16.1672363,56.1181641 Z M21.0310059,53.8144531 L22.0358887,53.8144531 C22.0427246,53.7631836 22.0427246,53.71875 22.0427246,53.6674805 C22.0427246,52.6899414 21.1848145,51.9414062 20.0534668,51.9414062 C18.4812012,51.9414062 17.3430176,53.2368164 17.3430176,55.0585937 C17.3430176,56.3129883 18.1496582,57.1264648 19.3869629,57.1264648 C20.579834,57.1264648 21.4855957,56.453125 21.7009277,55.4140625 L20.6789551,55.4140625 C20.5183105,55.8959961 20.036377,56.2138672 19.4758301,56.2138672 C18.8127441,56.2138672 18.3991699,55.7456055 18.3991699,54.9868164 C18.3991699,53.7734375 19.0930176,52.8574219 19.9885254,52.8574219 C20.5935059,52.8574219 21.0070801,53.2197266 21.0310059,53.7666016 L21.0310059,53.8144531 Z M24.5344238,57 L25.4025879,52.949707 L26.8791504,52.949707 L27.0603027,52.0678711 L23.0681152,52.0678711 L22.8869629,52.949707 L24.3635254,52.949707 L23.4953613,57 L24.5344238,57 Z M29.326416,57.1264648 C30.861084,57.1264648 32.0197754,55.8618164 32.0197754,54.0366211 C32.0197754,52.840332 31.2028809,51.9414062 29.8937988,51.9414062 C28.3591309,51.9414062 27.1936035,53.2163086 27.1936035,55.03125 C27.1936035,56.2275391 28.0344238,57.1264648 29.326416,57.1264648 Z M30.9602051,54.1152344 C30.9602051,55.3046875 30.2629395,56.2036133 29.3674316,56.2036133 C28.6975098,56.2036133 28.2531738,55.7080078 28.2531738,54.9560547 C28.2531738,53.7802734 28.9606934,52.8676758 29.8527832,52.8676758 C30.5158691,52.8676758 30.9602051,53.3632812 30.9602051,54.1152344 Z M32.4436035,57 L33.482666,57 L33.8654785,55.2124023 L34.7473145,55.2124023 L35.3352051,57 L36.4460449,57 L35.7692871,55.0927734 C36.5212402,54.8466797 36.989502,54.1904297 36.989502,53.4658203 C36.989502,52.6455078 36.3571777,52.0678711 35.4445801,52.0678711 L33.4929199,52.0678711 L32.4436035,57 Z M34.361084,52.9018555 L35.2087402,52.9018555 C35.666748,52.9018555 35.9367676,53.1411133 35.9367676,53.5581055 C35.9367676,54.0639648 35.5334473,54.4194336 34.9284668,54.4194336 L34.026123,54.4194336 L34.361084,52.9018555 Z" id="DIRECTOR"></path>
                    <path d="M4.7800293,66.8144531 L5.78491211,66.8144531 C5.79174805,66.7631836 5.79174805,66.71875 5.79174805,66.6674805 C5.79174805,65.6899414 4.93383789,64.9414062 3.80249023,64.9414062 C2.23022461,64.9414062 1.09204102,66.2368164 1.09204102,68.0585937 C1.09204102,69.3129883 1.89868164,70.1264648 3.13598633,70.1264648 C4.32885742,70.1264648 5.23461914,69.453125 5.44995117,68.4140625 L4.42797852,68.4140625 C4.26733398,68.8959961 3.78540039,69.2138672 3.22485352,69.2138672 C2.56176758,69.2138672 2.14819336,68.7456055 2.14819336,67.9868164 C2.14819336,66.7734375 2.84204102,65.8574219 3.73754883,65.8574219 C4.3425293,65.8574219 4.75610352,66.2197266 4.7800293,66.7666016 L4.7800293,66.8144531 Z M9.2746582,70 L10.3376465,70 L9.69848633,65.0678711 L8.50561523,65.0678711 L5.70288086,70 L6.77954102,70 L7.4152832,68.8242187 L9.1550293,68.8242187 L9.2746582,70 Z M8.84399414,66.0966797 L8.90893555,66.0966797 L9.10717773,68.027832 L7.80493164,68.027832 L8.84399414,66.0966797 Z M12.1491699,70 L12.8566895,66.7016602 L12.911377,66.7016602 L13.5095215,69.7163086 L14.1965332,69.7163086 L16.1037598,66.7016602 L16.1584473,66.7016602 L15.4509277,70 L16.411377,70 L17.4606934,65.0678711 L16.2028809,65.0678711 L14.1247559,68.3833008 L14.0632324,68.3833008 L13.4206543,65.0678711 L12.2346191,65.0678711 L11.1853027,70 L12.1491699,70 Z M21.0563965,69.1181641 L18.8244629,69.1181641 L19.0910645,67.918457 L21.1931152,67.918457 L21.3640137,67.1015625 L19.2585449,67.1015625 L19.5148926,65.949707 L21.7434082,65.949707 L21.9245605,65.0678711 L18.6569824,65.0678711 L17.607666,70 L20.8786621,70 L21.0563965,69.1181641 Z M21.9587402,70 L22.9978027,70 L23.3806152,68.2124023 L24.2624512,68.2124023 L24.8503418,70 L25.9611816,70 L25.2844238,68.0927734 C26.036377,67.8466797 26.5046387,67.1904297 26.5046387,66.4658203 C26.5046387,65.6455078 25.8723145,65.0678711 24.9597168,65.0678711 L23.0080566,65.0678711 L21.9587402,70 Z M23.8762207,65.9018555 L24.723877,65.9018555 C25.1818848,65.9018555 25.4519043,66.1411133 25.4519043,66.5581055 C25.4519043,67.0639648 25.048584,67.4194336 24.4436035,67.4194336 L23.5412598,67.4194336 L23.8762207,65.9018555 Z M30.0251465,70 L31.0881348,70 L30.4489746,65.0678711 L29.2561035,65.0678711 L26.4533691,70 L27.5300293,70 L28.1657715,68.8242187 L29.9055176,68.8242187 L30.0251465,70 Z M29.5944824,66.0966797 L29.6594238,66.0966797 L29.857666,68.027832 L28.5554199,68.027832 L29.5944824,66.0966797 Z M32.8996582,70 L33.6071777,66.7016602 L33.6618652,66.7016602 L34.2600098,69.7163086 L34.9470215,69.7163086 L36.854248,66.7016602 L36.9089355,66.7016602 L36.201416,70 L37.1618652,70 L38.2111816,65.0678711 L36.9533691,65.0678711 L34.8752441,68.3833008 L34.8137207,68.3833008 L34.1711426,65.0678711 L32.9851074,65.0678711 L31.935791,70 L32.8996582,70 Z M41.5778809,70 L42.6408691,70 L42.001709,65.0678711 L40.8088379,65.0678711 L38.0061035,70 L39.0827637,70 L39.7185059,68.8242187 L41.458252,68.8242187 L41.5778809,70 Z M41.1472168,66.0966797 L41.2121582,66.0966797 L41.4104004,68.027832 L40.1081543,68.027832 L41.1472168,66.0966797 Z M44.4899902,70 L45.173584,66.8486328 L45.2351074,66.8486328 L46.8859863,70 L47.6687012,70 L48.7180176,65.0678711 L47.7165527,65.0678711 L47.026123,68.2431641 L46.9645996,68.2431641 L45.3273926,65.0678711 L44.5378418,65.0678711 L43.4885254,70 L44.4899902,70 Z" id="CAMERAMAN"></path>
                </g>
                <g id="Separator" transform="translate(14.000000, 89.000000)" fill="#EDEDED">
                    <rect id="Rectangle-5" x="0" y="0" width="114" height="2"></rect>
                    <rect id="Rectangle-5" transform="translate(37.500000, 13.000000) rotate(-270.000000) translate(-37.500000, -13.000000) " x="25" y="12" width="25" height="2"></rect>
                    <rect id="Rectangle-5" transform="translate(77.500000, 13.000000) rotate(-270.000000) translate(-77.500000, -13.000000) " x="65" y="12" width="25" height="2"></rect>
                    <rect id="Rectangle-5" transform="translate(68.000000, 39.000000) rotate(-270.000000) translate(-68.000000, -39.000000) " x="55" y="38" width="26" height="2"></rect>
                    <rect id="Rectangle-5" x="0" y="25" width="114" height="2"></rect>
                    <rect id="Rectangle-5" x="0" y="38" width="114" height="2"></rect>
                    <rect id="Rectangle-5" x="0" y="51" width="114" height="2"></rect>
                    <rect id="Rectangle-5" x="0" y="64" width="114" height="2"></rect>
                </g>
                <g id="Group" transform="translate(3.000000, 64.000000)">
                    <rect id="Rectangle-2" fill="#222222" x="2" y="6" width="132" height="14"></rect>
                    <rect id="Rectangle-2" fill="#000000" x="0" y="0" width="135" height="14"></rect>
                    <polygon id="Rectangle-4" fill="#FFFFFF" points="48.32 0 62 0 54.68 14 41 14"></polygon>
                    <polygon id="Rectangle-4" fill="#FFFFFF" points="70.32 0 84 0 76.68 14 63 14"></polygon>
                    <polygon id="Rectangle-4" fill="#FFFFFF" points="92.32 0 106 0 98.68 14 85 14"></polygon>
                    <polygon id="Rectangle-4" fill="#FFFFFF" points="114.32 0 128 0 120.68 14 107 14"></polygon>
                </g>
                <g id="Group" transform="translate(65.611048, 32.970036) scale(1, -1) rotate(23.000000) translate(-65.611048, -32.970036) translate(-1.888952, 25.970036)">
                    <rect id="Rectangle-2" fill="#000000" x="0" y="0" width="135" height="14"></rect>
                    <polygon id="Rectangle-4" fill="#FFFFFF" points="48.32 0 62 0 54.68 14 41 14"></polygon>
                    <polygon id="Rectangle-4" fill="#FFFFFF" points="70.32 0 84 0 76.68 14 63 14"></polygon>
                    <polygon id="Rectangle-4" fill="#FFFFFF" points="92.32 0 106 0 98.68 14 85 14"></polygon>
                    <polygon id="Rectangle-4" fill="#FFFFFF" points="114.32 0 128 0 120.68 14 107 14"></polygon>
                </g>
                <g id="Group-2" transform="translate(2.000000, 47.000000)">
                    <g id="Rectangle">
                        <use fill="#000000" fill-rule="evenodd" xlink:href="#path-1"></use>
                        <use fill="black" fill-opacity="1" filter="url(#filter-2)" xlink:href="#path-1"></use>
                    </g>
                    <circle id="Oval" fill="#E9E9E9" cx="7" cy="10" r="2"></circle>
                    <circle id="Oval" fill="#E9E9E9" cx="7" cy="24" r="2"></circle>
                    <circle id="Oval" fill="#E9E9E9" cx="28" cy="24" r="2"></circle>
                </g>
            </g>
        </g>
    </g>
</svg>